<svg aria-hidden="true" style="position: absolute; width: 0; height: 0; overflow: hidden;" version="1.1" xmlns="http://www.w3.org/2000/svg" xmlns:xlink="http://www.w3.org/1999/xlink">
<defs>
<symbol id="icon-star-full" viewBox="0 0 20 20">
<path d="M10 15l-5.878 3.090 1.123-6.545-4.756-4.635 6.572-0.955 2.939-5.955 2.939 5.955 6.572 0.955-4.756 4.635 1.123 6.545z"></path>
</symbol>
<symbol id="icon-user-solid-circle" viewBox="0 0 20 20">
<path d="M10 20c-5.523 0-10-4.477-10-10s4.477-10 10-10v0c5.523 0 10 4.477 10 10s-4.477 10-10 10v0zM7 6v2c0 1.657 1.343 3 3 3s3-1.343 3-3v0-2c0-1.657-1.343-3-3-3s-3 1.343-3 3v0zM3.35 14.44c1.456 2.155 3.89 3.553 6.65 3.553s5.194-1.398 6.632-3.525l0.018-0.028c-1.951-0.918-4.238-1.453-6.65-1.453s-4.699 0.536-6.748 1.495l0.098-0.041z"></path>
</symbol>
</defs>
</svg>
